<svg aria-hidden="true" style="position: absolute; width: 0; height: 0; overflow: hidden;" version="1.1" xmlns="http://www.w3.org/2000/svg" xmlns:xlink="http://www.w3.org/1999/xlink">
<defs>
<symbol id="icon-icon-mobile" viewBox="0 0 20 32">
<path d="M17 0h-14c-1.654 0-3 1.346-3 3v26c0 1.654 1.346 3 3 3h14c1.654 0 3-1.346 3-3v-26c0-1.654-1.346-3-3-3zM3 2h14c0.552 0 1 0.448 1 1v21h-16v-21c0-0.552 0.448-1 1-1zM17 30h-14c-0.552 0-1-0.448-1-1v-3h16v3c0 0.552-0.448 1-1 1z"></path>
</symbol>
<symbol id="icon-icon-envelope" viewBox="0 0 43 32">
<path d="M38.667 0h-34.667c-2.206 0-4 1.794-4 4v24c0 2.206 1.794 4 4 4h34.667c2.206 0 4-1.794 4-4v-24c0-2.206-1.794-4-4-4zM38.667 2.667c0.181 0 0.353 0.038 0.511 0.103l-17.844 15.466-17.844-15.466c0.158-0.066 0.33-0.103 0.511-0.103h34.667zM38.667 29.333h-34.667c-0.736 0-1.333-0.598-1.333-1.333v-22.413l17.793 15.421c0.251 0.217 0.563 0.326 0.874 0.326s0.622-0.108 0.874-0.326l17.793-15.421v22.413c0 0.736-0.598 1.333-1.333 1.333z"></path>
</symbol>
<symbol id="icon-icon-vector" viewBox="0 0 30 32">
<path d="M29.859 22.098l-8.443-8.505 0.937-4.615c0.242 0.094 0.499 0.144 0.758 0.146h0.006c1.192 0.014 2.17-0.941 2.184-2.133s-0.941-2.17-2.133-2.184c-1.192-0.014-2.17 0.941-2.184 2.133-0.003 0.255 0.039 0.509 0.125 0.749l-4.96 0.605-8.091-8.133c-0.099-0.101-0.235-0.159-0.377-0.16-0.14 0.001-0.274 0.056-0.373 0.155l-1.513 1.504c-0.208 0.208-0.208 0.546 0 0.754l0.814 0.826c-3.153 5.798-2.129 12.978 2.519 17.663 0.043 0.041 0.092 0.074 0.146 0.098-0.034 0.18-0.051 0.364-0.052 0.547v6.187h-6.4c-1.472 0.002-2.665 1.195-2.667 2.667v1.067c0 0.295 0.239 0.533 0.533 0.533h24.533c0.295 0 0.533-0.239 0.533-0.533v-1.067c-0.002-1.472-1.195-2.665-2.667-2.667h-6.4v-2.742c1.003 0.21 2.024 0.317 3.049 0.32 2.458-0.003 4.877-0.615 7.040-1.783l0.818 0.823c0.099 0.101 0.235 0.159 0.377 0.16 0.14-0.001 0.274-0.056 0.373-0.155l1.513-1.504c0.208-0.208 0.208-0.546 0-0.754zM22.366 6.233c0.418-0.415 1.093-0.414 1.508 0.004s0.414 1.093-0.004 1.508c-0.2 0.199-0.47 0.31-0.752 0.31h-0.003c-0.589-0.003-1.064-0.483-1.061-1.072 0.002-0.282 0.115-0.552 0.314-0.751h-0.002zM21.11 9.738l-0.598 2.946-1.175-1.182 1.774-1.763zM20.504 8.836l-1.92 1.909-1.485-1.493 3.405-0.415zM23.090 28.8c0.884 0 1.6 0.716 1.6 1.6v0.533h-23.467v-0.533c0-0.884 0.716-1.6 1.6-1.6h20.267zM15.623 26.667v1.067h-5.333v-1.067h5.333zM10.29 25.6v-4.053c0-1.294 1.196-2.347 2.667-2.347s2.667 1.053 2.667 2.347v4.053h-5.333zM16.69 23.904v-2.357c0-1.882-1.675-3.413-3.733-3.413-1.331-0.020-2.576 0.657-3.281 1.786-4.058-4.274-4.971-10.645-2.279-15.887l18.602 18.708c-2.872 1.461-6.165 1.873-9.309 1.163zM27.979 23.22l-21.057-21.181 0.755-0.752 7.935 7.98c0.004 0 0.006 0.007 0.010 0.010l13.115 13.191-0.757 0.752z"></path>
</symbol>
<symbol id="icon-icon-clock" viewBox="0 0 31 32">
<path d="M30.84 15.301c-0.002-8.452-6.855-15.303-15.308-15.301s-15.303 6.855-15.301 15.308c0.001 6.658 4.307 12.551 10.649 14.576 0.061 0.019 0.124 0.029 0.187 0.029 0.121-0 0.239-0.032 0.342-0.094 0.135-0.080 0.236-0.207 0.283-0.356l3.865-12.25c1.057-0.005 1.909-0.866 1.903-1.923s-0.866-1.909-1.923-1.903c-0.284 0.001-0.565 0.067-0.82 0.191l-5.106-5.107c-0.253-0.245-0.657-0.238-0.902 0.016-0.239 0.247-0.239 0.639 0 0.886l5.103 5.109c-0.392 0.799-0.168 1.764 0.536 2.309l-3.683 11.673c-7.278-2.681-11.004-10.754-8.323-18.032s10.754-11.004 18.032-8.323 11.004 10.754 8.323 18.032c-1.31 3.556-4.001 6.431-7.462 7.973l-0.398-1.874c-0.073-0.344-0.411-0.565-0.756-0.492-0.109 0.023-0.209 0.074-0.292 0.148l-3.837 3.426c-0.263 0.234-0.287 0.637-0.052 0.9 0.076 0.085 0.174 0.149 0.283 0.184l4.899 1.563c0.335 0.108 0.694-0.077 0.802-0.412 0.034-0.106 0.040-0.219 0.017-0.328l-0.391-1.839c5.664-2.388 9.342-7.942 9.329-14.089zM15.535 14.664c0.352 0 0.638 0.286 0.638 0.638s-0.286 0.638-0.638 0.638c-0.352 0-0.638-0.285-0.638-0.638s0.285-0.638 0.638-0.638zM17.635 29.528l2.184-1.948 0.603 2.84-2.787-0.892z"></path>
</symbol>
<symbol id="icon-icon-computer" viewBox="0 0 41 32">
<path d="M2.073 31.933h33.168c1.145 0 2.073-0.928 2.073-2.073v-2.764c0-1.145-0.928-2.073-2.073-2.073h-0.691v-17.232l3.925-3.718c0.911 0.449 2.014 0.176 2.61-0.646s0.513-1.955-0.198-2.681-1.841-0.834-2.677-0.256c-0.835 0.578-1.132 1.675-0.703 2.595l-2.957 2.803v-1.594c0-1.145-0.928-2.073-2.073-2.073h-27.64c-1.145 0-2.073 0.928-2.073 2.073v20.73h-0.691c-1.145 0-2.073 0.928-2.073 2.073v2.764c0 1.145 0.928 2.073 2.073 2.073zM39.387 1.529c0.382 0 0.691 0.309 0.691 0.691s-0.309 0.691-0.691 0.691c-0.382 0-0.691-0.309-0.691-0.691s0.309-0.691 0.691-0.691zM4.146 4.293c0-0.382 0.309-0.691 0.691-0.691h27.64c0.382 0 0.691 0.309 0.691 0.691v2.902l-1.382 1.313v-2.833c0-0.382-0.309-0.691-0.691-0.691h-24.876c-0.382 0-0.691 0.309-0.691 0.691v17.275c0 0.382 0.309 0.691 0.691 0.691h24.876c0.382 0 0.691-0.309 0.691-0.691v-12.541l1.382-1.309v15.923h-29.022v-20.73zM10.365 13.276c-0.935-0.003-1.756 0.62-2.004 1.521s0.136 1.857 0.94 2.334c0.804 0.477 1.828 0.357 2.499-0.293l2.402 1.205c0.279 0.14 0.617 0.074 0.825-0.159l5.106-5.744 5.019 3.761c0.269 0.202 0.645 0.18 0.889-0.051l4.362-4.132v10.54h-23.494v-15.893h23.494v3.449l-4.889 4.63-5.061-3.794c-0.287-0.215-0.692-0.175-0.931 0.093l-5.176 5.824-1.935-0.968c0.014-0.083 0.023-0.167 0.026-0.251 0-1.145-0.928-2.073-2.073-2.073zM11.056 15.349c0 0.382-0.309 0.691-0.691 0.691s-0.691-0.309-0.691-0.691c0-0.382 0.309-0.691 0.691-0.691s0.691 0.309 0.691 0.691zM15.202 26.405h6.91v0.691c0 0.382-0.309 0.691-0.691 0.691h-5.528c-0.382 0-0.691-0.309-0.691-0.691v-0.691zM1.382 27.096c0-0.382 0.309-0.691 0.691-0.691h11.747v0.691c0 1.145 0.928 2.073 2.073 2.073h5.528c1.145 0 2.073-0.928 2.073-2.073v-0.691h11.747c0.382 0 0.691 0.309 0.691 0.691v2.764c0 0.382-0.309 0.691-0.691 0.691h-33.168c-0.382 0-0.691-0.309-0.691-0.691v-2.764z"></path>
</symbol>
<symbol id="icon-icon-ufo" viewBox="0 0 29 32">
<path d="M28.361 13.626c-0.33-0.445-0.814-0.731-1.364-0.809-0.552-0.078-1.097 0.067-1.537 0.404l-1.437 1.102-2.178 1.626-1.558-0.621c2.779-1.247 4.721-4.026 4.721-7.253 0-4.387-3.583-7.956-7.988-7.956s-7.988 3.569-7.988 7.956c0 1.59 0.476 3.069 1.285 4.313l-3.172-0.028c-0.002 0-0.004 0-0.005 0-0.010 0-0.018 0.005-0.027 0.005-0.061 0.002-0.12 0.015-0.178 0.036-0.015 0.005-0.030 0.009-0.044 0.015-0.007 0.003-0.015 0.004-0.022 0.007l-3.71 1.832c-0.001 0-0.001 0-0.001 0.001l-2.173 1.045c-0.024 0.010-0.048 0.024-0.072 0.040-0.866 0.576-1.161 1.709-0.687 2.634 0.253 0.492 0.683 0.854 1.212 1.020 0.204 0.064 0.412 0.095 0.619 0.095 0.332 0 0.662-0.081 0.963-0.242l1.593-0.847 2.598-1.342 1.557-0.009-6.245 6.215c-0.001 0.001-0.001 0.001-0.002 0.001l-1.536 1.53c-0.363 0.361-0.562 0.84-0.562 1.351s0.2 0.991 0.562 1.353c0.373 0.371 0.863 0.557 1.353 0.557s0.98-0.186 1.354-0.557l1.508-1.502 1.998-1.491 1.034 1.029-2.022 2.013c-0.001 0.001-0.001 0.001-0.002 0.001l-1.536 1.53c-0.363 0.361-0.562 0.84-0.562 1.351s0.2 0.991 0.562 1.353c0.373 0.371 0.864 0.557 1.354 0.557s0.981-0.186 1.354-0.557l3.995-3.978c0.001-0.001 0.001-0.001 0.001-0.002l1.159-1.148-0.004-0.004c0.007-0.007 0.018-0.010 0.025-0.018l5.928-6.493 3.983 0.567c0.029 0.004 0.058 0.006 0.086 0.006 0.074 0 0.146-0.018 0.215-0.044 0.020-0.007 0.038-0.017 0.057-0.027 0.022-0.011 0.045-0.017 0.066-0.031l3.687-2.448c0.013-0.009 0.021-0.024 0.034-0.034 0.015-0.012 0.033-0.017 0.046-0.029l1.459-1.367c0.759-0.711 0.864-1.877 0.243-2.71zM2.445 17.769c-0.199 0.107-0.425 0.128-0.641 0.059-0.214-0.067-0.388-0.213-0.49-0.411-0.185-0.36-0.078-0.798 0.246-1.035l1.507-0.725 0.515 1.506-1.138 0.605zM6.458 15.672l-1.777 0.918-0.504-1.473 2.326-1.148-0.045 1.703zM23.785 8.074c0 1.054-0.252 2.048-0.687 2.937l-4.798-2.179c-0.050-0.658-0.392-1.234-0.905-1.593l1.68-5.577c2.728 0.868 4.71 3.413 4.71 6.412zM10.257 8.074c0-3.712 3.034-6.732 6.764-6.732 0.29 0 0.574 0.024 0.855 0.060l-1.643 5.455c-0.022-0.001-0.043-0.007-0.066-0.007-1.185 0-2.149 0.961-2.149 2.142s0.964 2.142 2.149 2.142c0.797 0 1.485-0.44 1.857-1.084l4.432 2.014c-1.233 1.66-3.207 2.742-5.436 2.742-3.73 0-6.764-3.020-6.764-6.732zM17.092 8.992c0 0.506-0.415 0.918-0.925 0.918s-0.925-0.412-0.925-0.918c0-0.506 0.415-0.918 0.925-0.918s0.925 0.412 0.925 0.918zM2.829 26.233c-0.271 0.269-0.71 0.268-0.98 0.001-0.13-0.13-0.202-0.302-0.202-0.485s0.072-0.354 0.202-0.483l1.104-1.1 0.977 0.973-1.1 1.096zM6.517 30.518c-0.271 0.269-0.711 0.269-0.981 0.001-0.13-0.13-0.202-0.302-0.202-0.485s0.072-0.354 0.202-0.483l1.105-1.1 0.977 0.973-1.101 1.096zM10.512 26.537c-0.001 0.001-0.001 0.001-0.002 0.001l-2.025 2.020-0.977-0.973 2.023-2.014c0 0 0 0 0-0.001s0.001-0.001 0.002-0.001c0.046-0.046 0.075-0.101 0.103-0.155 0.008-0.016 0.023-0.029 0.030-0.046 0.019-0.047 0.022-0.098 0.029-0.148 0.004-0.028 0.016-0.054 0.016-0.083 0-0.041-0.015-0.081-0.023-0.121-0.007-0.037-0.007-0.074-0.021-0.11-0.023-0.058-0.063-0.108-0.105-0.158-0.012-0.013-0.016-0.031-0.029-0.044 0 0 0 0-0.001 0s-0.001-0.002-0.001-0.002l-1.844-1.836c-0.020-0.020-0.045-0.028-0.067-0.044-0.032-0.025-0.064-0.048-0.1-0.066-0.035-0.017-0.070-0.028-0.107-0.037-0.039-0.011-0.077-0.020-0.118-0.023-0.037-0.002-0.072 0.001-0.11 0.006-0.041 0.005-0.080 0.010-0.119 0.023-0.039 0.012-0.073 0.031-0.108 0.051-0.023 0.013-0.048 0.017-0.070 0.033l-2.035 1.519-1.034-1.029 2.753-2.738 5.004 4.921-1.064 1.055zM18.337 18.485c-0.018-0.002-0.034 0.004-0.052 0.003-0.045-0.002-0.087 0.001-0.132 0.008-0.035 0.006-0.068 0.013-0.101 0.024-0.039 0.013-0.075 0.032-0.111 0.054-0.034 0.021-0.065 0.043-0.095 0.070-0.015 0.013-0.032 0.019-0.046 0.034l-5.391 5.905-4.967-4.885 3.251-3.234c0.239-0.239 0.241-0.626 0.002-0.866-0.121-0.121-0.279-0.18-0.438-0.179v-0.001l-2.546 0.015 0.032-1.845 3.562 0.031c1.452 1.485 3.476 2.411 5.716 2.411 0.502 0 0.991-0.052 1.468-0.141 0.046 0.037 0.091 0.074 0.149 0.097l2.765 1.102 0.175 0.87 0.204 1.016-3.446-0.49zM22.974 18.69l-0.359-1.788 1.66-1.239 1.086 1.442-2.387 1.585zM27.282 15.441l-0.962 0.901-1.069-1.419 0.954-0.731c0.178-0.137 0.403-0.193 0.623-0.164 0.222 0.031 0.417 0.147 0.551 0.326 0.249 0.335 0.206 0.802-0.098 1.087z"></path>
</symbol>
<symbol id="icon-icon-instagram" viewBox="0 0 28 32">
<path d="M14.006 8.813c-3.975 0-7.181 3.206-7.181 7.181s3.206 7.181 7.181 7.181 7.181-3.206 7.181-7.181-3.206-7.181-7.181-7.181zM14.006 20.663c-2.569 0-4.669-2.094-4.669-4.669s2.094-4.669 4.669-4.669 4.669 2.094 4.669 4.669-2.1 4.669-4.669 4.669zM23.156 8.519c0 0.931-0.75 1.675-1.675 1.675-0.931 0-1.675-0.75-1.675-1.675s0.75-1.675 1.675-1.675 1.675 0.75 1.675 1.675zM27.913 10.219c-0.106-2.244-0.619-4.231-2.262-5.869-1.637-1.638-3.625-2.15-5.869-2.263-2.313-0.131-9.244-0.131-11.556 0-2.237 0.106-4.225 0.619-5.869 2.256s-2.15 3.625-2.263 5.869c-0.131 2.313-0.131 9.244 0 11.556 0.106 2.244 0.619 4.231 2.263 5.869s3.625 2.15 5.869 2.262c2.313 0.131 9.244 0.131 11.556 0 2.244-0.106 4.231-0.619 5.869-2.262 1.637-1.637 2.15-3.625 2.262-5.869 0.131-2.313 0.131-9.238 0-11.55zM24.925 24.25c-0.488 1.225-1.431 2.169-2.663 2.663-1.844 0.731-6.219 0.563-8.256 0.563s-6.419 0.163-8.256-0.563c-1.225-0.488-2.169-1.431-2.663-2.663-0.731-1.844-0.563-6.219-0.563-8.256s-0.163-6.419 0.563-8.256c0.487-1.225 1.431-2.169 2.663-2.662 1.844-0.731 6.219-0.563 8.256-0.563s6.419-0.162 8.256 0.563c1.225 0.487 2.169 1.431 2.663 2.662 0.731 1.844 0.563 6.219 0.563 8.256s0.169 6.419-0.563 8.256z"></path>
</symbol>
<symbol id="icon-icon-twitter" viewBox="0 0 36 32">
<path d="M35.556 4.976c-1.322 0.58-2.731 0.964-4.2 1.151 1.511-0.902 2.665-2.32 3.207-4.029-1.409 0.84-2.964 1.433-4.622 1.764-1.338-1.424-3.244-2.307-5.324-2.307-4.035 0-7.284 3.276-7.284 7.291 0 0.578 0.049 1.133 0.169 1.662-6.060-0.296-11.422-3.2-15.024-7.624-0.629 1.091-0.998 2.34-0.998 3.684 0 2.524 1.3 4.762 3.238 6.058-1.171-0.022-2.32-0.362-3.293-0.898 0 0.022 0 0.051 0 0.080 0 3.542 2.527 6.484 5.84 7.162-0.593 0.162-1.24 0.24-1.911 0.24-0.467 0-0.938-0.026-1.38-0.124 0.944 2.887 3.624 5.009 6.811 5.078-2.48 1.94-5.629 3.109-9.038 3.109-0.598 0-1.171-0.026-1.744-0.1 3.229 2.082 7.056 3.271 11.182 3.271 13.413 0 20.747-11.111 20.747-20.742 0-0.322-0.011-0.633-0.027-0.942 1.447-1.027 2.662-2.309 3.653-3.784z"></path>
</symbol>
<symbol id="icon-icon-facebook" viewBox="0 0 18 32">
<path d="M13.329 5.313h2.921v-5.088c-0.504-0.069-2.237-0.225-4.256-0.225-4.212 0-7.097 2.649-7.097 7.519v4.481h-4.648v5.688h4.648v14.312h5.699v-14.311h4.46l0.708-5.688h-5.169v-3.919c0.001-1.644 0.444-2.769 2.735-2.769z"></path>
</symbol>
<symbol id="icon-icon-linkedin" viewBox="0 0 28 32">
<path d="M6.268 28h-5.805v-18.694h5.805zM3.362 6.756c-1.856 0-3.362-1.537-3.362-3.394s1.505-3.362 3.362-3.362 3.362 1.505 3.362 3.362v0c0 1.856-1.506 3.394-3.362 3.394zM27.994 28h-5.793v-9.1c0-2.169-0.044-4.95-3.018-4.95-3.018 0-3.481 2.356-3.481 4.794v9.256h-5.799v-18.694h5.568v2.55h0.081c0.775-1.469 2.668-3.019 5.492-3.019 5.875 0 6.955 3.869 6.955 8.894v10.269z"></path>
</symbol>

<symbol id="icon-icon-company-one" viewBox="0 0 106 61" fill="#afb1b8">
<path d="M38 7.71313L45.0078 14.3473L32 14.3396V46.5269H66V34.2202L73 40.8469V7.71313H38ZM65.6924 33.4415L45.8226 14.6311H65.6924V33.4415ZM59.5231 41.8187H37.3801V20.1711H38.9453V40.3528H59.5231V41.8187ZM42.6089 50.8123L41.791 52.4968L40.9731 50.8123H40.2871L41.481 53.0583V54.3669H42.1011V53.0583L43.2925 50.8123H42.6089ZM43.6367 54.3669L43.9248 53.5393H45.3018L45.5923 54.3669H46.2368L44.8916 50.8123H44.3374L42.9946 54.3669H43.6367ZM44.6133 51.5667L45.1284 53.0413H44.0981L44.6133 51.5667ZM47.8701 52.9558C47.7806 53.0925 47.7358 53.2431 47.7358 53.4075C47.7358 53.707 47.8408 53.9503 48.0508 54.1375C48.2624 54.323 48.5439 54.4158 48.8955 54.4158C49.2471 54.4158 49.5498 54.3206 49.8037 54.1301L50.0039 54.3669H50.6924L50.1699 53.7493C50.375 53.4693 50.4775 53.1104 50.4775 52.6726H49.9624C49.9624 52.9119 49.9128 53.1292 49.8135 53.3245L49.1274 52.5139L49.3691 52.3381C49.54 52.2144 49.6629 52.0907 49.7378 51.967C49.8127 51.8417 49.8501 51.705 49.8501 51.5569C49.8501 51.3323 49.7671 51.1443 49.6011 50.9929C49.4367 50.8399 49.2251 50.7634 48.9663 50.7634C48.6798 50.7634 48.452 50.8448 48.2827 51.0076C48.1134 51.1687 48.0288 51.3884 48.0288 51.6667C48.0288 51.7807 48.0557 51.8987 48.1094 52.0208C48.1647 52.1428 48.2616 52.2909 48.3999 52.4651C48.1362 52.6539 47.9596 52.8175 47.8701 52.9558ZM49.4741 53.7419C49.3 53.8754 49.1128 53.9421 48.9126 53.9421C48.7352 53.9421 48.5936 53.8909 48.4878 53.7883C48.382 53.6858 48.3291 53.5523 48.3291 53.3879C48.3291 53.1975 48.4268 53.0282 48.6221 52.8801L48.6978 52.8264L49.4741 53.7419ZM48.8369 52.1672C48.6693 51.9605 48.5854 51.7888 48.5854 51.6521C48.5854 51.5333 48.6196 51.4348 48.688 51.3567C48.7563 51.2786 48.8483 51.2395 48.9639 51.2395C49.0713 51.2395 49.16 51.2729 49.23 51.3396C49.3 51.4047 49.335 51.4836 49.335 51.5764C49.335 51.7164 49.2845 51.8311 49.1836 51.9207L49.1079 51.9817L48.8369 52.1672ZM54.623 54.0984C54.8672 53.8852 55.0072 53.5889 55.043 53.2097H54.4277C54.3952 53.4636 54.3179 53.6451 54.1958 53.7542C54.0737 53.8632 53.8914 53.9177 53.6489 53.9177C53.3836 53.9177 53.1818 53.8168 53.0435 53.615C52.9067 53.4132 52.8384 53.1202 52.8384 52.7361V52.4211C52.8416 52.0419 52.9149 51.7546 53.0581 51.5593C53.203 51.3624 53.4097 51.2639 53.6782 51.2639C53.9093 51.2639 54.0843 51.3209 54.2031 51.4348C54.3236 51.5471 54.3984 51.731 54.4277 51.9866H55.043C55.0039 51.5976 54.8647 51.2965 54.6255 51.0833C54.3862 50.87 54.0705 50.7634 53.6782 50.7634C53.3869 50.7634 53.1297 50.8326 52.9067 50.9709C52.6854 51.1093 52.5153 51.3062 52.3965 51.5618C52.2777 51.8173 52.2183 52.1127 52.2183 52.448V52.78C52.2231 53.1072 52.2842 53.3945 52.4014 53.6418C52.5186 53.8892 52.6846 54.0805 52.8994 54.2156C53.1159 54.349 53.3657 54.4158 53.6489 54.4158C54.0542 54.4158 54.3789 54.31 54.623 54.0984ZM58.2534 53.6003C58.3739 53.3367 58.4341 53.0307 58.4341 52.6824V52.4846C58.4325 52.1379 58.3706 51.8344 58.2485 51.574C58.1265 51.3119 57.9531 51.1117 57.7285 50.9734C57.5055 50.8334 57.2492 50.7634 56.9595 50.7634C56.6698 50.7634 56.4126 50.8342 56.188 50.9758C55.965 51.1158 55.7917 51.3184 55.668 51.5837C55.5459 51.849 55.4849 52.155 55.4849 52.5017V52.7019C55.4865 53.0421 55.5483 53.3424 55.6704 53.6028C55.7941 53.8632 55.9683 54.0642 56.1929 54.2058C56.4191 54.3458 56.6763 54.4158 56.9644 54.4158C57.2557 54.4158 57.5129 54.3458 57.7358 54.2058C57.9604 54.0642 58.133 53.8624 58.2534 53.6003ZM57.5918 51.5911C57.7415 51.801 57.8164 52.1029 57.8164 52.4968V52.6824C57.8164 53.0828 57.7423 53.3871 57.5942 53.5955C57.4478 53.8038 57.2378 53.908 56.9644 53.908C56.6942 53.908 56.4826 53.8013 56.3296 53.5881C56.1782 53.3749 56.1025 53.073 56.1025 52.6824V52.4773C56.1058 52.0948 56.1823 51.7994 56.332 51.5911C56.4834 51.3811 56.6925 51.2761 56.9595 51.2761C57.2329 51.2761 57.4437 51.3811 57.5918 51.5911Z" fill="#AFB1B8"/>
</symbol>

<symbol id="icon-icon-company-two" viewBox="0 0 106 61" fill="#afb1b8">
<path d="M50.1136 6.64766H49.977C49.7671 6.63494 49.5571 6.62985 49.3471 6.62477H49.3471H49.3269H48.8918C48.4946 6.62477 48.0898 6.63494 47.6876 6.65528C47.6573 6.65308 47.6269 6.65308 47.5966 6.65528C43.9522 6.86177 40.3817 7.77265 37.0805 9.33806L36.6479 9.54658V31.6877L37.6598 31.3444C38.5477 31.0393 39.4938 30.7646 40.4728 30.5103C43.1193 29.8309 45.8367 29.4699 48.568 29.4347V32.3438C48.2062 32.3463 47.8546 32.3565 47.503 32.3743H47.4195C45.3175 32.4896 43.2317 32.8098 41.1913 33.3304C38.6072 33.9774 36.1143 34.9488 33.7716 36.2217V7.82502C36.2047 6.40588 38.8253 5.34001 41.5556 4.6591C43.9527 4.04019 46.4169 3.72244 48.8918 3.71313H49.3193C49.8303 3.72585 50.3287 3.74874 50.7967 3.78434C52.0297 3.87091 53.2528 4.06576 54.4521 4.36666V7.22998C53.2874 6.95864 52.1032 6.78009 50.9105 6.69597C50.8863 6.69392 50.8621 6.69186 50.8379 6.68979C50.5911 6.66874 50.344 6.64766 50.1136 6.64766ZM55.1528 9.57452C55.7877 9.62283 56.4455 9.64572 57.1108 9.64572C59.7125 9.63621 62.3031 9.30397 64.8239 8.65653C67.4068 8.0071 69.8986 7.03491 72.2411 5.7627V33.6533C69.8067 35.0716 67.1853 36.1375 64.4546 36.8193C62.0571 37.4358 59.5931 37.7527 57.1184 37.7627C55.2433 37.7778 53.3737 37.5574 51.553 37.1066V9.03542C51.983 9.1346 52.4257 9.22614 52.876 9.30243C53.6147 9.42703 54.3939 9.51857 55.1528 9.57452ZM69.3471 9.79067L68.3352 10.1314C67.4042 10.4442 66.4657 10.7239 65.5221 10.9731C62.7749 11.6791 59.9514 12.0412 57.1158 12.0513C56.4556 12.0513 55.8485 12.0335 55.2616 11.9954L54.4546 11.942V32.031V34.7188L55.1477 34.7799C55.7903 34.8358 56.4531 34.8638 57.1209 34.8638C59.3544 34.8543 61.5781 34.5664 63.7412 34.0068C65.5223 33.56 67.2552 32.9374 68.9145 32.1479L69.3471 31.9394V9.79067Z" fill="#AFB1B8"/>
<path d="M35.7371 45.9255C35.5917 45.7746 35.4163 45.6562 35.2224 45.5777C35.0284 45.4993 34.8203 45.4627 34.6114 45.4703C34.3888 45.4674 34.1678 45.5089 33.9613 45.5924C33.7719 45.6678 33.5998 45.7812 33.4553 45.9255C33.3125 46.0703 33.2013 46.2436 33.129 46.4341C33.0497 46.6338 33.0101 46.8472 33.0126 47.0622V50.8562C33.0036 51.1236 33.0546 51.3895 33.1619 51.6344C33.2514 51.8288 33.3807 52.0021 33.5413 52.1429C33.693 52.2706 33.871 52.3627 34.0625 52.4125C34.2469 52.4643 34.4376 52.4909 34.6291 52.4913C34.8404 52.4934 35.0495 52.4483 35.2413 52.3591C35.4309 52.2761 35.6028 52.1569 35.7473 52.0082C35.8881 51.8608 36.0005 51.6883 36.0786 51.4996C36.1597 51.3083 36.201 51.1023 36.2001 50.8944V50.4697H35.2084V50.8079C35.2114 50.9234 35.1916 51.0383 35.1502 51.1461C35.1179 51.2269 35.0688 51.2997 35.006 51.3597C34.9446 51.4094 34.8742 51.4465 34.7986 51.4691C34.7316 51.4914 34.6617 51.5034 34.5912 51.5047C34.5026 51.515 34.413 51.5016 34.3312 51.4659C34.2495 51.4301 34.1786 51.3734 34.1257 51.3012C34.0322 51.1488 33.9864 50.9716 33.9942 50.7927V47.2555C33.988 47.0593 34.0297 46.8646 34.1156 46.6884C34.1671 46.6083 34.2399 46.5444 34.3258 46.5039C34.4117 46.4635 34.5071 46.4481 34.6013 46.4595C34.6868 46.4565 34.7717 46.4743 34.8488 46.5115C34.9259 46.5487 34.9929 46.6042 35.044 46.6731C35.155 46.8188 35.213 46.9983 35.2084 47.1817V47.5098H36.19V47.1232C36.1919 46.8962 36.1507 46.671 36.0685 46.4595C35.9953 46.2608 35.8825 46.0791 35.7371 45.9255V45.9255Z" fill="#AFB1B8"/>
<path d="M41.6289 45.8822C41.3127 45.6152 40.9136 45.4677 40.5007 45.4652C40.2987 45.4661 40.0984 45.5022 39.9087 45.572C39.7161 45.641 39.5384 45.7463 39.3851 45.8822C39.2208 46.0299 39.0897 46.2111 39.0005 46.4137C38.9006 46.6455 38.8515 46.8961 38.8563 47.1486V50.7875C38.8495 51.0435 38.8987 51.2979 39.0005 51.5326C39.0903 51.7283 39.2215 51.9019 39.3851 52.0412C39.5367 52.1819 39.7147 52.2909 39.9087 52.3616C40.0984 52.4314 40.2987 52.4675 40.5007 52.4684C40.7027 52.468 40.9031 52.4319 41.0926 52.3616C41.29 52.2899 41.4719 52.1812 41.6289 52.0412C41.7871 51.8993 41.9145 51.7261 42.0033 51.5326C42.1051 51.2979 42.1544 51.0435 42.1475 50.7875V47.1486C42.1524 46.8961 42.1032 46.6455 42.0033 46.4137C41.9151 46.2132 41.7878 46.0325 41.6289 45.8822V45.8822ZM41.166 50.7875C41.1743 50.8845 41.1609 50.9821 41.1268 51.0732C41.0926 51.1643 41.0386 51.2466 40.9687 51.3139C40.8377 51.4238 40.6725 51.4839 40.5019 51.4839C40.3313 51.4839 40.1662 51.4238 40.0352 51.3139C39.9652 51.2466 39.9112 51.1643 39.8771 51.0732C39.8429 50.9821 39.8295 50.8845 39.8379 50.7875V47.1486C39.8295 47.0516 39.8429 46.954 39.8771 46.8629C39.9112 46.7718 39.9652 46.6896 40.0352 46.6222C40.1662 46.5124 40.3313 46.4522 40.5019 46.4522C40.6725 46.4522 40.8377 46.5124 40.9687 46.6222C41.0386 46.6896 41.0926 46.7718 41.1268 46.8629C41.1609 46.954 41.1743 47.0516 41.166 47.1486V50.7875Z" fill="#AFB1B8"/>
<path d="M49.3673 52.4125V45.5238H48.4136L47.1614 49.1703H47.1437L45.8813 45.5238H44.9377V52.4125H45.9218V48.2218H45.9395L46.9033 51.1843H47.3941L48.3655 48.2218H48.3832V52.4125H49.3673Z" fill="#AFB1B8"/>
<path d="M54.9581 46.0068C54.8065 45.8368 54.6153 45.7075 54.4015 45.6304C54.1712 45.5555 53.9302 45.5194 53.6881 45.5236H52.226V52.4124H53.2075V49.722H53.7134C54.0197 49.7359 54.3244 49.6712 54.5988 49.5338C54.822 49.4099 55.0081 49.2281 55.1377 49.0074C55.2512 48.8242 55.3277 48.6203 55.3628 48.4073C55.4014 48.1481 55.4192 47.8862 55.4159 47.6241C55.4255 47.2933 55.3932 46.9626 55.3198 46.64C55.2543 46.4016 55.1299 46.1838 54.9581 46.0068V46.0068ZM54.4521 48.1072C54.4479 48.232 54.4168 48.3543 54.361 48.4658C54.3049 48.5717 54.2162 48.6565 54.1081 48.7074C53.9627 48.7724 53.8041 48.802 53.6451 48.7938H53.1974V46.4518H53.7033C53.8557 46.4443 54.0075 46.474 54.146 46.5383C54.2475 46.5965 54.3281 46.6855 54.3762 46.7926C54.4299 46.9136 54.4591 47.0441 54.4622 47.1765C54.4622 47.3215 54.4622 47.4741 54.4622 47.6343C54.4622 47.7945 54.4723 47.9598 54.4622 48.1072H54.4521Z" fill="#AFB1B8"/>
<path d="M59.6077 45.5238H58.8032L57.2854 52.4125H58.2669L58.5553 50.9326H59.8935L60.1819 52.4125H61.1635L59.6077 45.5238ZM58.702 49.9942L59.1852 47.4971H59.2029L59.6836 49.9942H58.702Z" fill="#AFB1B8"/>
<path d="M65.9497 49.6738H65.932L64.4496 45.5238H63.506V52.4125H64.4875V48.2701H64.5078L66.0079 52.4125H66.9312V45.5238H65.9497V49.6738Z" fill="#AFB1B8"/>
<path d="M71.9476 45.5238L71.1583 48.2625H71.1381L70.3488 45.5238H69.3091L70.6574 49.5009V52.4125H71.639V49.5009L72.9873 45.5238H71.9476Z" fill="#AFB1B8"/>
<path d="M33 54.3577H33.4731V55.6851H33.7943V54.3577H34.2649V54.0856H33V54.3577Z" fill="#AFB1B8"/>
<path d="M36.9767 54.0856L36.3569 55.6851H36.6984L36.83 55.3214H37.4675L37.6041 55.6851H37.9532L37.3182 54.0856H36.9767ZM36.9261 55.0519L37.1437 54.4594L37.3612 55.0519H36.9261Z" fill="#AFB1B8"/>
<path d="M40.9079 55.0953H41.2773V55.3012C41.1694 55.3877 41.0358 55.4352 40.8978 55.436C40.8333 55.4396 40.7689 55.4277 40.7099 55.4011C40.6509 55.3746 40.5991 55.3342 40.5588 55.2834C40.474 55.1617 40.4322 55.0149 40.4399 54.8664C40.4399 54.5104 40.5942 54.3324 40.9003 54.3324C40.9809 54.3244 41.0617 54.3456 41.128 54.3922C41.1944 54.4389 41.2419 54.5079 41.2621 54.5867L41.5783 54.5257C41.51 54.2129 41.2849 54.0552 40.9003 54.0552C40.6947 54.0497 40.4947 54.1234 40.3413 54.2612C40.2607 54.3408 40.1983 54.4371 40.1586 54.5433C40.1188 54.6496 40.1026 54.7633 40.1111 54.8766C40.1017 55.0954 40.1749 55.3097 40.316 55.4767C40.3943 55.5575 40.4892 55.6202 40.594 55.6606C40.6988 55.701 40.8111 55.7181 40.9231 55.7106C41.1734 55.7176 41.4165 55.6264 41.6011 55.4564V54.8257H40.9079V55.0953Z" fill="#AFB1B8"/>
<path d="M44.9226 54.0856H44.5988V55.6851H45.7194V55.413H44.9226V54.0856Z" fill="#AFB1B8"/>
<path d="M48.3175 54.0856H47.9937V55.6851H48.3175V54.0856Z" fill="#AFB1B8"/>
<path d="M51.6365 55.1536L50.9813 54.0856H50.6676V55.6851H50.9686V54.6399L51.6112 55.6851H51.9325V54.0856H51.6365V55.1536Z" fill="#AFB1B8"/>
<path d="M54.6368 54.9807H55.4337V54.7086H54.6368V54.3577H55.4944V54.0856H54.313V55.6851H55.5273V55.413H54.6368V54.9807Z" fill="#AFB1B8"/>
<path d="M61.9122 54.7162H61.2823V54.0856H60.9611V55.6851H61.2823V54.9858H61.9122V55.6851H62.2335V54.0856H61.9122V54.7162Z" fill="#AFB1B8"/>
<path d="M64.9302 54.9807H65.7296V54.7086H64.9302V54.3577H65.7903V54.0856H64.6089V55.6851H65.8206V55.413H64.9302V54.9807Z" fill="#AFB1B8"/>
<path d="M69.0233 54.9807C69.3015 54.9375 69.4432 54.79 69.4432 54.5357C69.4513 54.4677 69.441 54.3987 69.4134 54.3361C69.3858 54.2735 69.3419 54.2194 69.2863 54.1797C69.1415 54.107 68.9799 54.0745 68.8183 54.0856H68.1404V55.6851H68.4617V55.0163H68.5249C68.5934 55.0121 68.6619 55.0243 68.7247 55.0519C68.7717 55.0809 68.8108 55.1211 68.8386 55.1689L69.1877 55.6775H69.5722L69.3774 55.3647C69.2913 55.2103 69.1699 55.0787 69.0233 54.9807V54.9807ZM68.6994 54.7595H68.4617V54.3577H68.7146C68.8248 54.3488 68.9357 54.3618 69.041 54.3959C69.0644 54.4165 69.0828 54.4422 69.095 54.471C69.1072 54.4998 69.1127 54.531 69.1113 54.5623C69.1098 54.5936 69.1014 54.6241 69.0866 54.6516C69.0718 54.6792 69.051 54.703 69.0258 54.7214C68.9202 54.7537 68.8096 54.7667 68.6994 54.7595V54.7595Z" fill="#AFB1B8"/>
<path d="M72.1096 54.9807H72.9064V54.7086H72.1096V54.3577H72.9697V54.0856H71.7858V55.6851H73V55.413H72.1096V54.9807Z" fill="#AFB1B8"/>
</symbol>

<symbol id="icon-icon-five" viewBox="0 0 106 60" fill="#afb1b8">
<path d="M26.7569 44.7352C27.0006 45.0114 27.1304 45.3572 27.1236 45.7122C27.136 45.9437 27.0914 46.1749 26.993 46.3885C26.8947 46.6021 26.7451 46.7927 26.5554 46.9463C26.082 47.2736 25.4956 47.4336 24.9037 47.3969H22V41.2055H24.8442C25.4057 41.1713 25.9626 41.3167 26.42 41.6168C26.6036 41.7576 26.7491 41.9355 26.8448 42.1365C26.9406 42.3376 26.984 42.5562 26.9716 42.7753C26.9883 43.1168 26.8712 43.4526 26.6413 43.722C26.4206 43.968 26.1156 44.1385 25.7758 44.2059C26.161 44.2703 26.5087 44.4579 26.7569 44.7352V44.7352ZM23.3511 43.8006H24.5667C24.843 43.8193 25.1174 43.7463 25.3397 43.5949C25.431 43.5192 25.502 43.4252 25.5473 43.3203C25.5925 43.2154 25.6108 43.1024 25.6007 42.99C25.6093 42.878 25.5906 42.7657 25.5461 42.6611C25.5015 42.5564 25.4322 42.4622 25.343 42.3851C25.1141 42.2294 24.8312 42.1553 24.5469 42.1764H23.3511V43.8006ZM25.4587 46.175C25.5562 46.0974 25.6329 46.0003 25.6828 45.8912C25.7326 45.7821 25.7543 45.6639 25.7461 45.5458C25.7535 45.4264 25.7309 45.307 25.6799 45.1969C25.6289 45.0868 25.551 44.9888 25.4521 44.9107C25.2142 44.7492 24.9217 44.6699 24.6262 44.6868H23.3511V46.3897H24.6427C24.9334 46.4051 25.2212 46.3293 25.4587 46.175V46.175Z" fill="#AFB1B8"/>
<path d="M32.5709 47.3969L30.9886 44.9772H30.394V47.3969H29.033V41.2055H31.6096C32.2591 41.164 32.9012 41.3524 33.4034 41.7318C33.7635 42.0678 33.9808 42.5106 34.0159 42.9803C34.051 43.45 33.9018 43.9158 33.595 44.2937C33.2771 44.6271 32.8428 44.8494 32.3661 44.9228L34.0508 47.3969H32.5709ZM30.394 44.1333H31.5072C32.2802 44.1333 32.6667 43.8208 32.6667 43.1957C32.6746 43.0681 32.6534 42.9403 32.6045 42.8205C32.5556 42.7008 32.48 42.5916 32.3826 42.5C32.1383 42.314 31.8237 42.2238 31.5072 42.249H30.3807L30.394 44.1333Z" fill="#AFB1B8"/>
<path d="M40.0102 46.1506H37.2981L36.8191 47.3968H35.392L37.8828 41.2749H39.4255L41.9063 47.3968H40.4793L40.0102 46.1506ZM39.6468 45.213L38.6558 42.5997L37.6648 45.213H39.6468Z" fill="#AFB1B8"/>
<path d="M49.3224 47.3969H47.9713L44.9421 43.1866V47.3969H43.5943V41.2054H44.9421L47.9713 45.44V41.2054H49.3224V47.3969Z" fill="#AFB1B8"/>
<path d="M57.0326 45.9149C56.7532 46.3823 56.3276 46.7626 55.8103 47.0068C55.2222 47.2788 54.5695 47.4128 53.9109 47.397H51.506V41.2055H53.9109C54.5684 41.1898 55.2202 41.3206 55.8103 41.5866C56.3275 41.8253 56.7536 42.2017 57.0326 42.6664C57.3107 43.17 57.4556 43.7263 57.4556 44.2906C57.4556 44.8549 57.3107 45.4113 57.0326 45.9149V45.9149ZM55.4866 45.7667C55.8722 45.3554 56.0842 44.8312 56.0842 44.2891C56.0842 43.7471 55.8722 43.2229 55.4866 42.8116C55.0205 42.439 54.4127 42.2499 53.7952 42.2853H52.8571V46.293H53.7952C54.4127 46.3283 55.0205 46.1392 55.4866 45.7667Z" fill="#AFB1B8"/>
<path d="M40.8558 6.76672C40.8558 6.76672 58.2945 12.7949 57.9245 21.518V36.2722C57.9245 36.2722 40.4991 30.2411 40.8624 21.518L40.8558 6.76672Z" fill="#AFB1B8"/>
<path d="M73.4603 32.8181C76.7538 30.7428 80.5633 29.4574 84.5399 29.0796V24.4609C79.9579 26.0779 76.0709 29.0098 73.4603 32.8181V32.8181Z" fill="#AFB1B8"/>
<path d="M71.4816 34.2095C74.1773 29.2396 78.8505 25.4046 84.54 23.4932V10.1847C84.54 10.1847 59.705 18.7717 60.2303 31.1939V52.2002C60.2303 52.2002 61.3369 51.816 63.0778 51.0961C63.0778 50.4247 63.0778 49.7472 63.1571 49.0666C63.6711 43.2996 66.6654 37.9556 71.4816 34.2095V34.2095Z" fill="#AFB1B8"/>
<path d="M69.1197 42.0131C69.2502 40.5563 69.5413 39.1152 69.9885 37.712C66.9896 40.9471 65.1734 44.9614 64.7956 49.1906C64.7592 49.5899 64.7394 49.9891 64.7295 50.4005C66.14 49.7804 67.7818 49.0061 69.5062 48.0957C69.0662 46.0948 68.936 44.0472 69.1197 42.0131V42.0131Z" fill="#AFB1B8"/>
<path d="M70.1075 42.0887C69.9421 43.929 70.0454 45.7813 70.4147 47.5966C77.1999 43.8793 84.8241 38.1355 84.5301 31.1939V30.589C79.6824 31.0856 75.1468 33.026 71.6204 36.112C70.7948 38.0244 70.2849 40.0387 70.1075 42.0887V42.0887Z" fill="#AFB1B8"/>
</symbol>

<symbol id="icon-icon-copyright" viewBox="0 0 32 32">
<path fill="#afb1b8" d="M16 0c-8.838 0-16 7.162-16 16s7.162 16 16 16 16-7.163 16-16-7.163-16-16-16zM16 29c-7.169 0-13-5.832-13-13s5.831-13 13-13 13 5.832 13 13-5.831 13-13 13zM15.944 11c0 0 0 0 0 0 1.316 0 2.557 0.52 3.489 1.461 0.586 0.584 1.533 0.594 2.123 0.010 0.588-0.584 0.592-1.533 0.010-2.123-1.5-1.514-3.497-2.348-5.622-2.348 0 0 0.002 0 0 0-2.123 0-4.122 0.834-5.622 2.348-3.090 3.117-3.090 8.188 0 11.306 1.5 1.514 3.499 2.348 5.622 2.348 0.002 0 0 0 0 0 2.125 0 4.122-0.834 5.622-2.348 0.582-0.59 0.578-1.539-0.010-2.123-0.59-0.582-1.537-0.576-2.123 0.010-0.932 0.941-2.173 1.461-3.489 1.461 0 0 0.002 0 0 0-1.318 0-2.559-0.52-3.493-1.461-1.934-1.951-1.934-5.127 0-7.081 0.937-0.941 2.174-1.46 3.493-1.46z"></path>
</symbol>

<symbol id="icon-icon-three" viewBox="0 0 106 60" fill="#afb1b8">
<path d="M36.4063 49.1014C36.4222 49.1018 36.4379 49.1049 36.4524 49.1106C36.4669 49.1163 36.4799 49.1245 36.4908 49.1346L36.7089 49.3431C36.5396 49.5118 36.3304 49.6468 36.0955 49.7388C35.8204 49.8391 35.5239 49.8875 35.2257 49.8809C34.9455 49.8859 34.6671 49.8408 34.4078 49.7482C34.1739 49.6632 33.9638 49.5356 33.7916 49.3739C33.6159 49.2062 33.4805 49.0096 33.3935 48.7958C33.2982 48.5574 33.2512 48.3065 33.2545 48.0542C33.2506 47.8003 33.3015 47.548 33.4044 47.3103C33.4997 47.0951 33.6433 46.8986 33.827 46.7322C34.0132 46.5691 34.2359 46.4408 34.4814 46.3555C34.7499 46.265 35.0359 46.22 35.3239 46.2228C35.5914 46.2172 35.8575 46.2582 36.1064 46.3436C36.3223 46.425 36.5206 46.538 36.6926 46.6777L36.5099 46.9004C36.4973 46.9161 36.4816 46.9297 36.4635 46.9407C36.442 46.9535 36.4159 46.9594 36.3899 46.9573C36.3616 46.9556 36.3343 46.9474 36.3109 46.9336L36.2127 46.8743L36.0764 46.7985C36.0175 46.7704 35.9565 46.7458 35.8937 46.7251C35.8128 46.6999 35.7299 46.6801 35.6456 46.6659C35.5386 46.6487 35.4299 46.6408 35.3211 46.6422C35.1138 46.6399 34.908 46.6737 34.7159 46.7417C34.5367 46.8046 34.375 46.8999 34.2415 47.0212C34.1055 47.1503 34.0007 47.3018 33.9334 47.4667C33.8566 47.6553 33.8187 47.8542 33.8216 48.0542C33.8183 48.2574 33.8561 48.4595 33.9334 48.6513C33.9999 48.8147 34.1027 48.9653 34.236 49.0943C34.3609 49.2146 34.5157 49.3086 34.6886 49.3692C34.8666 49.4333 35.0576 49.4655 35.2503 49.4639C35.3615 49.4654 35.4728 49.4591 35.5829 49.445C35.7627 49.4259 35.9351 49.3716 36.0873 49.2862C36.1636 49.2425 36.2356 49.1934 36.3027 49.1393C36.3307 49.1161 36.3676 49.1026 36.4063 49.1014Z" fill="#AFB1B8"/>
<path d="M42.7044 48.0538C42.7078 48.3052 42.6579 48.5549 42.5571 48.7906C42.4683 49.0043 42.3283 49.1993 42.1465 49.3626C41.9646 49.526 41.745 49.654 41.502 49.7382C40.9682 49.9151 40.3781 49.9151 39.8443 49.7382C39.603 49.6527 39.3848 49.5244 39.2036 49.3615C39.0219 49.1952 38.8809 48.9986 38.7892 48.7835C38.5928 48.3063 38.5928 47.7847 38.7892 47.3076C38.8822 47.0923 39.023 46.8951 39.2036 46.7271C39.3863 46.5694 39.6044 46.446 39.8443 46.3647C40.3775 46.1846 40.9689 46.1846 41.502 46.3647C41.7442 46.4502 41.9633 46.5784 42.1455 46.7414C42.325 46.906 42.4649 47.1001 42.5571 47.3123C42.6582 47.5495 42.7081 47.8009 42.7044 48.0538ZM42.1318 48.0538C42.1361 47.8527 42.1011 47.6525 42.0282 47.4615C41.9671 47.298 41.8678 47.1472 41.7365 47.0185C41.6087 46.8968 41.4513 46.8013 41.2757 46.739C40.8879 46.6095 40.4585 46.6095 40.0706 46.739C39.8951 46.8013 39.7377 46.8968 39.6099 47.0185C39.4767 47.1464 39.3764 47.2974 39.3154 47.4615C39.1767 47.8472 39.1767 48.2604 39.3154 48.6461C39.377 48.81 39.4773 48.9609 39.6099 49.0891C39.7379 49.2101 39.8953 49.3048 40.0706 49.3663C40.4592 49.4925 40.8872 49.4925 41.2757 49.3663C41.4511 49.3048 41.6085 49.2101 41.7365 49.0891C41.8672 48.9601 41.9665 48.8094 42.0282 48.6461C42.1014 48.4552 42.1364 48.2549 42.1318 48.0538Z" fill="#AFB1B8"/>
<path d="M47.0013 48.6747L47.0586 48.8074C47.0804 48.76 47.0995 48.7173 47.1213 48.6747C47.1421 48.6302 47.1657 48.5867 47.1922 48.5444L48.5854 46.3438C48.6127 46.3059 48.6372 46.2823 48.6645 46.2751C48.7015 46.2653 48.7403 46.2613 48.779 46.2633H49.1907V49.8425H48.7026V47.2108C48.7026 47.1776 48.7026 47.1397 48.7026 47.0995C48.7 47.0585 48.7 47.0173 48.7026 46.9763L47.3012 49.2077C47.2834 49.2411 47.255 49.2694 47.2192 49.2891C47.1834 49.3089 47.1418 49.3192 47.0995 49.319H47.0204C46.9779 49.3195 46.9362 49.3093 46.9004 49.2895C46.8646 49.2697 46.8362 49.2413 46.8186 49.2077L45.3763 46.9621C45.3763 47.0047 45.3763 47.0474 45.3763 47.09C45.3763 47.1326 45.3763 47.1705 45.3763 47.2037V49.8354H44.9047V46.2633H45.3164C45.355 46.2613 45.3938 46.2653 45.4309 46.2751C45.4647 46.2897 45.4916 46.314 45.5072 46.3438L46.9304 48.5468C46.9584 48.5875 46.9821 48.6303 47.0013 48.6747Z" fill="#AFB1B8"/>
<path d="M52.2443 48.4969V49.8376H51.699V46.2632H52.915C53.1446 46.2594 53.3735 46.2857 53.5939 46.3413C53.7704 46.3848 53.9341 46.4607 54.0738 46.564C54.1949 46.6608 54.2883 46.7808 54.3464 46.9146C54.4108 47.0604 54.4423 47.2156 54.4391 47.3717C54.4415 47.5285 54.4072 47.684 54.3383 47.8289C54.2727 47.966 54.172 48.0884 54.0438 48.1866C53.9039 48.2941 53.7395 48.3749 53.5612 48.4234C53.3489 48.4824 53.1269 48.5104 52.9041 48.5063L52.2443 48.4969ZM52.2443 48.1131H52.9041C53.0475 48.1148 53.1901 48.0964 53.3267 48.0587C53.4394 48.0257 53.5433 47.9733 53.6321 47.9047C53.714 47.8391 53.7775 47.7581 53.8175 47.6678C53.8621 47.5723 53.8844 47.4701 53.8829 47.367C53.8893 47.2676 53.8706 47.1683 53.8282 47.0758C53.7859 46.9834 53.7208 46.9 53.6376 46.8317C53.4293 46.6904 53.1676 46.6219 52.9041 46.6398H52.2443V48.1131Z" fill="#AFB1B8"/>
<path d="M59.5731 49.8424H59.1423C59.0991 49.8438 59.0566 49.8321 59.0223 49.8092C58.9914 49.7869 58.9671 49.7585 58.9514 49.7263L58.5806 48.8616H56.7185L56.334 49.7263C56.3199 49.7579 56.2964 49.7857 56.2659 49.8069C56.2312 49.8311 56.1877 49.8437 56.1432 49.8424H55.7124L57.3483 46.2628H57.9154L59.5731 49.8424ZM56.8739 48.5134H58.4116L57.7627 47.0564C57.7131 46.9468 57.6721 46.8344 57.64 46.72L57.5773 46.9072C57.5582 46.964 57.5364 47.0162 57.5173 47.0588L56.8739 48.5134Z" fill="#AFB1B8"/>
<path d="M61.9288 46.2795C61.9614 46.295 61.9894 46.3169 62.0106 46.3434L64.3962 49.0417C64.3962 48.9991 64.3962 48.9564 64.3962 48.9161C64.3962 48.8759 64.3962 48.8356 64.3962 48.7977V46.2629H64.8843V49.8424H64.6116C64.5729 49.8434 64.5345 49.8361 64.4998 49.8211C64.4662 49.804 64.4365 49.7815 64.4126 49.7548L62.0297 47.0589C62.0323 47.0999 62.0323 47.141 62.0297 47.1821C62.0297 47.2223 62.0297 47.2579 62.0297 47.291V49.8424H61.5416V46.2629H61.8306C61.8644 46.2621 61.8979 46.2677 61.9288 46.2795Z" fill="#AFB1B8"/>
<path d="M68.9031 48.4188V49.8402H68.3578V48.4188L66.85 46.2631H67.3381C67.3801 46.2609 67.4217 46.2718 67.4553 46.2938C67.485 46.3168 67.5099 46.3441 67.5289 46.3744L68.4723 47.765C68.5105 47.8242 68.5432 47.8787 68.5705 47.9308C68.5977 47.9829 68.6195 48.0327 68.6386 48.0824L68.7095 47.9284C68.736 47.8721 68.7669 47.8175 68.8022 47.765L69.7319 46.3649C69.7515 46.337 69.7753 46.3115 69.8028 46.2891C69.8352 46.2646 69.8772 46.2518 69.9201 46.2536H70.4136L68.9031 48.4188Z" fill="#afb1b8"/>
<path d="M46.7314 40.2561C46.9686 40.2822 47.2085 40.3035 47.4512 40.3225C51.13 38.8926 54.2422 36.5523 56.3986 33.5942C58.5551 30.636 59.6602 27.1912 59.5758 23.6904L55.5216 20.1678C56.3459 23.8951 55.9603 27.7482 54.4079 31.2959C52.8555 34.8437 50.1975 37.9461 46.7314 40.2561Z" fill="#AFB1B8"/>
<path d="M45.2837 40.0923L45.3928 40.1112C49.0966 37.8094 51.9205 34.5951 53.4993 30.8839C55.078 27.1727 55.3389 23.1353 54.2483 19.2939L48.4737 14.2767C50.8094 18.4008 51.7495 23.0162 51.1848 27.5862C50.6201 32.1562 48.5737 36.493 45.2837 40.0923Z" fill="#AFB1B8"/>
<path d="M64.8679 27.8265C63.8868 31.6731 61.5041 35.1423 58.0735 37.7189C57.0716 38.4755 55.9909 39.1496 54.8454 39.7324C57.6389 39.019 60.2065 37.7578 62.3502 36.046C64.494 34.3341 66.1566 32.2174 67.21 29.859L64.8679 27.8265Z" fill="#AFB1B8"/>
<path d="M63.9491 27.2601L60.6146 24.3629C60.5509 27.666 59.4701 30.894 57.4846 33.7114C55.4991 36.5287 52.6814 38.8327 49.3243 40.3837H49.3406C50.0888 40.3835 50.8362 40.3447 51.5791 40.2676C54.7165 39.155 57.488 37.3849 59.6465 35.1152C61.8049 32.8455 63.2831 30.1469 63.9491 27.2601Z" fill="#AFB1B8"/>
<path d="M45.7663 12.1609L41.7883 8.69995C38.2322 9.89391 35.1738 11.9928 33.0134 14.722C30.8529 17.4512 29.6912 20.6835 29.6801 23.9959V23.9959C29.6934 27.656 31.1113 31.2077 33.7093 34.0888C36.3073 36.9699 39.9371 39.016 44.0241 39.903C47.6725 36.041 49.8086 31.2687 50.1219 26.2798C50.4352 21.2908 48.9094 16.3449 45.7663 12.1609Z" fill="#AFB1B8"/>
<path d="M73.14 26.7273C73.1257 22.3848 71.1338 18.2238 67.5997 15.1532C64.0655 12.0826 59.2763 10.352 54.2783 10.3395C51.9688 10.3374 49.6789 10.7077 47.5248 11.4315L71.8804 32.5926C72.7144 30.7221 73.1415 28.7333 73.14 26.7273Z" fill="#AFB1B8"/>
</symbol>

<symbol id="icon-icon-four" viewBox="0 0 106 60" fill="#afb1b8">
<path d="M24.1462 21.1028H24.1433C21.7453 21.1028 19.8013 22.8304 19.8013 24.9615V24.964C19.8013 27.0951 21.7453 28.8227 24.1433 28.8227H24.1462C26.5442 28.8227 28.4882 27.0951 28.4882 24.964V24.9615C28.4882 22.8304 26.5442 21.1028 24.1462 21.1028Z" fill="#afb1b8"/>
<path d="M56.195 19.8693C56.1882 16.9093 54.8623 14.0722 52.5074 11.979C50.1525 9.88568 46.9604 8.70667 43.6297 8.69995V8.69995C40.298 8.70533 37.1045 9.88374 34.7484 11.9772C32.3922 14.0706 31.0655 16.9084 31.0587 19.8693V36.1921C31.0587 36.1921 56.1922 33.7044 56.195 19.8718V19.8693Z" fill="##afb1b8"/>
<path d="M11 41.5495C11.006 43.6091 11.9291 45.5828 13.5676 47.0394C15.2061 48.496 17.4267 49.317 19.7442 49.3231C22.0612 49.317 24.2814 48.4963 25.9197 47.0403C27.5581 45.5843 28.4816 43.6112 28.4884 41.552V30.1943C28.4884 30.1943 11 31.9266 11 41.5495ZM19.7442 43.5844C19.2913 43.5844 18.8486 43.4651 18.472 43.2415C18.0955 43.0179 17.802 42.7001 17.6287 42.3282C17.4554 41.9564 17.41 41.5472 17.4984 41.1525C17.5867 40.7577 17.8048 40.3951 18.125 40.1105C18.4453 39.8259 18.8533 39.6321 19.2975 39.5536C19.7416 39.4751 20.202 39.5154 20.6205 39.6694C21.0389 39.8234 21.3965 40.0843 21.6481 40.4189C21.8997 40.7535 22.034 41.147 22.034 41.5495C22.0351 41.8173 21.9767 42.0828 21.8622 42.3306C21.7476 42.5783 21.5791 42.8036 21.3664 42.9933C21.1536 43.1831 20.9008 43.3337 20.6224 43.4364C20.3441 43.5392 20.0456 43.5921 19.7442 43.5921V43.5844Z" fill="#afb1b8"/>
<path d="M37.4177 42.4637H35.7302V44.2069H34.8513V39.9413H37.6286V40.6532H35.7302V41.7548H37.4177V42.4637ZM41.6423 42.1708C41.6423 42.5907 41.5681 42.9589 41.4196 43.2753C41.2712 43.5917 41.0583 43.8358 40.7809 44.0077C40.5056 44.1796 40.1891 44.2655 39.8317 44.2655C39.4782 44.2655 39.1628 44.1805 38.8854 44.0106C38.6081 43.8407 38.3932 43.5985 38.2409 43.2841C38.0886 42.9677 38.0114 42.6044 38.0095 42.1942V41.9833C38.0095 41.5634 38.0847 41.1942 38.235 40.8759C38.3874 40.5555 38.6013 40.3104 38.8766 40.1405C39.154 39.9686 39.4704 39.8827 39.8259 39.8827C40.1813 39.8827 40.4968 39.9686 40.7722 40.1405C41.0495 40.3104 41.2634 40.5555 41.4138 40.8759C41.5661 41.1942 41.6423 41.5624 41.6423 41.9803V42.1708ZM40.7516 41.9774C40.7516 41.5302 40.6716 41.1903 40.5114 40.9579C40.3513 40.7255 40.1227 40.6093 39.8259 40.6093C39.5309 40.6093 39.3034 40.7245 39.1432 40.955C38.9831 41.1835 38.902 41.5194 38.9001 41.9628V42.1708C38.9001 42.6063 38.9802 42.9442 39.1403 43.1844C39.3005 43.4247 39.5309 43.5448 39.8317 43.5448C40.1266 43.5448 40.3532 43.4296 40.5114 43.1991C40.6696 42.9667 40.7497 42.6288 40.7516 42.1854V41.9774ZM44.4929 43.0878C44.4929 42.9218 44.4343 42.7948 44.3171 42.7069C44.1999 42.6171 43.989 42.5233 43.6843 42.4257C43.3796 42.326 43.1384 42.2284 42.9606 42.1327C42.4763 41.871 42.2341 41.5184 42.2341 41.0751C42.2341 40.8446 42.2985 40.6395 42.4274 40.4598C42.5583 40.2782 42.7448 40.1366 42.987 40.035C43.2311 39.9335 43.5046 39.8827 43.8073 39.8827C44.112 39.8827 44.3835 39.9384 44.6218 40.0497C44.86 40.1591 45.0446 40.3143 45.1755 40.5155C45.3083 40.7167 45.3747 40.9452 45.3747 41.201H44.4958C44.4958 41.0057 44.4343 40.8544 44.3112 40.7469C44.1882 40.6376 44.0153 40.5829 43.7927 40.5829C43.5778 40.5829 43.4108 40.6288 43.2917 40.7206C43.1725 40.8104 43.113 40.9296 43.113 41.078C43.113 41.2167 43.1823 41.3329 43.321 41.4266C43.4616 41.5204 43.6677 41.6083 43.9391 41.6903C44.4391 41.8407 44.8034 42.0272 45.0319 42.2499C45.2604 42.4725 45.3747 42.7499 45.3747 43.0819C45.3747 43.451 45.235 43.7411 44.9557 43.952C44.6765 44.161 44.3005 44.2655 43.8278 44.2655C43.4997 44.2655 43.2009 44.2059 42.9313 44.0868C42.6618 43.9657 42.4557 43.8007 42.3132 43.5917C42.1725 43.3827 42.1022 43.1405 42.1022 42.8651H42.9841C42.9841 43.3358 43.2653 43.5712 43.8278 43.5712C44.0368 43.5712 44.1999 43.5292 44.3171 43.4452C44.4343 43.3593 44.4929 43.2401 44.4929 43.0878ZM49.1833 40.6532H47.8766V44.2069H46.9977V40.6532H45.7087V39.9413H49.1833V40.6532ZM52.2536 42.3583H50.5661V43.5009H52.5466V44.2069H49.6872V39.9413H52.5407V40.6532H50.5661V41.6698H52.2536V42.3583ZM54.6413 42.6454H53.9411V44.2069H53.0622V39.9413H54.6472C55.1511 39.9413 55.5397 40.0536 55.8132 40.2782C56.0866 40.5028 56.2233 40.8202 56.2233 41.2303C56.2233 41.5214 56.1599 41.7645 56.0329 41.9598C55.9079 42.1532 55.7175 42.3075 55.4616 42.4227L56.3845 44.1659V44.2069H55.4411L54.6413 42.6454ZM53.9411 41.9335H54.6501C54.8708 41.9335 55.0417 41.8778 55.1628 41.7665C55.2839 41.6532 55.3444 41.4979 55.3444 41.3007C55.3444 41.0995 55.2868 40.9413 55.1716 40.826C55.0583 40.7108 54.8835 40.6532 54.6472 40.6532H53.9411V41.9335ZM59.2673 42.704V44.2069H58.3884V39.9413H60.0524C60.3727 39.9413 60.654 39.9999 60.8962 40.1171C61.1403 40.2343 61.3278 40.4012 61.4587 40.618C61.5895 40.8329 61.655 41.078 61.655 41.3534C61.655 41.7714 61.5114 42.1014 61.2243 42.3436C60.9391 42.5839 60.5436 42.704 60.0378 42.704H59.2673ZM59.2673 41.9921H60.0524C60.2849 41.9921 60.4616 41.9374 60.5827 41.828C60.7057 41.7186 60.7673 41.5624 60.7673 41.3593C60.7673 41.1503 60.7057 40.9813 60.5827 40.8524C60.4597 40.7235 60.2897 40.6571 60.0729 40.6532H59.2673V41.9921ZM64.8278 42.3583H63.1403V43.5009H65.1208V44.2069H62.2614V39.9413H65.1149V40.6532H63.1403V41.6698H64.8278V42.3583ZM68.9059 40.6532H67.5993V44.2069H66.7204V40.6532H65.4313V39.9413H68.9059V40.6532ZM71.9763 42.3583H70.2888V43.5009H72.2692V44.2069H69.4099V39.9413H72.2634V40.6532H70.2888V41.6698H71.9763V42.3583ZM74.364 42.6454H73.6638V44.2069H72.7849V39.9413H74.3698C74.8737 39.9413 75.2624 40.0536 75.5358 40.2782C75.8093 40.5028 75.946 40.8202 75.946 41.2303C75.946 41.5214 75.8825 41.7645 75.7556 41.9598C75.6306 42.1532 75.4401 42.3075 75.1843 42.4227L76.1071 44.1659V44.2069H75.1638L74.364 42.6454ZM73.6638 41.9335H74.3727C74.5934 41.9335 74.7643 41.8778 74.8854 41.7665C75.0065 41.6532 75.0671 41.4979 75.0671 41.3007C75.0671 41.0995 75.0095 40.9413 74.8942 40.826C74.7809 40.7108 74.6061 40.6532 74.3698 40.6532H73.6638V41.9335ZM78.8288 43.0878C78.8288 42.9218 78.7702 42.7948 78.653 42.7069C78.5358 42.6171 78.3249 42.5233 78.0202 42.4257C77.7155 42.326 77.4743 42.2284 77.2966 42.1327C76.8122 41.871 76.57 41.5184 76.57 41.0751C76.57 40.8446 76.6345 40.6395 76.7634 40.4598C76.8942 40.2782 77.0807 40.1366 77.3229 40.035C77.5671 39.9335 77.8405 39.8827 78.1432 39.8827C78.4479 39.8827 78.7194 39.9384 78.9577 40.0497C79.196 40.1591 79.3806 40.3143 79.5114 40.5155C79.6442 40.7167 79.7106 40.9452 79.7106 41.201H78.8317C78.8317 41.0057 78.7702 40.8544 78.6472 40.7469C78.5241 40.6376 78.3513 40.5829 78.1286 40.5829C77.9138 40.5829 77.7468 40.6288 77.6276 40.7206C77.5085 40.8104 77.4489 40.9296 77.4489 41.078C77.4489 41.2167 77.5182 41.3329 77.6569 41.4266C77.7975 41.5204 78.0036 41.6083 78.2751 41.6903C78.7751 41.8407 79.1393 42.0272 79.3679 42.2499C79.5964 42.4725 79.7106 42.7499 79.7106 43.0819C79.7106 43.451 79.571 43.7411 79.2917 43.952C79.0124 44.161 78.6364 44.2655 78.1638 44.2655C77.8356 44.2655 77.5368 44.2059 77.2673 44.0868C76.9977 43.9657 76.7917 43.8007 76.6491 43.5917C76.5085 43.3827 76.4382 43.1405 76.4382 42.8651H77.32C77.32 43.3358 77.6013 43.5712 78.1638 43.5712C78.3727 43.5712 78.5358 43.5292 78.653 43.4452C78.7702 43.3593 78.8288 43.2401 78.8288 43.0878Z" fill="#afb1b8"/>
</symbol>

<symbol id="icon-icon-six" viewBox="0 0 106 60" fill="#afb1b8">
<path d="M53.425 27.4082C52.9819 26.8184 52.7699 26.1213 52.8203 25.4196V22.5364C52.8203 21.6526 53.0207 20.9809 53.4216 20.5214C53.8224 20.0619 54.511 19.8331 55.4871 19.8351C56.4044 19.8351 57.0555 20.0306 57.4405 20.4217C57.8605 20.9207 58.0648 21.5309 58.018 22.1463V22.8239H56.3772V22.1375C56.383 21.9129 56.3671 21.6882 56.3296 21.4659C56.306 21.3138 56.2234 21.1732 56.0952 21.067C55.9267 20.9525 55.7145 20.897 55.5007 20.9115C55.2759 20.897 55.0529 20.9556 54.8756 21.0758C54.7327 21.1935 54.6374 21.3477 54.6038 21.5157C54.5567 21.7511 54.5351 21.9897 54.5393 22.2285V25.7276C54.5134 26.0652 54.5858 26.403 54.7499 26.7102C54.8315 26.8141 54.9448 26.8965 55.0774 26.9483C55.2099 27.0001 55.3564 27.0192 55.5007 27.0035C55.7109 27.0184 55.9195 26.9615 56.0816 26.8451C56.2153 26.7305 56.3013 26.581 56.3262 26.4198C56.3645 26.1877 56.3816 25.9533 56.3772 25.7188V25.009H58.018V25.6572C58.0641 26.2988 57.8648 26.9356 57.4507 27.4698C57.0736 27.8981 56.4315 28.1122 55.4871 28.1122C54.5427 28.1122 53.8292 27.8834 53.425 27.4082Z" fill="#AFB1B8"/>
<path d="M60.2569 27.4376C59.8424 26.9888 59.6352 26.3347 59.6352 25.4695V22.4367C59.6352 21.5803 59.8424 20.9321 60.2569 20.4921C60.6713 20.0521 61.3644 19.8331 62.3359 19.8351C63.3007 19.8351 63.9904 20.0541 64.4048 20.4921C64.8193 20.9321 65.0299 21.5803 65.0299 22.4367V25.4695C65.0299 26.3259 64.8193 26.9829 64.398 27.4346C63.9768 27.8863 63.2906 28.1122 62.3359 28.1122C61.3813 28.1122 60.6747 27.8834 60.2569 27.4376ZM63.1003 26.7102C63.2487 26.4291 63.3163 26.1212 63.2974 25.8127V22.0994C63.3164 21.7969 63.2499 21.4949 63.1037 21.2195C63.0205 21.1134 62.9043 21.0296 62.7686 20.9777C62.6328 20.9259 62.4829 20.908 62.3359 20.9262C62.1885 20.9085 62.0383 20.9265 61.9021 20.9783C61.7659 21.0301 61.6491 21.1136 61.5648 21.2195C61.4154 21.4941 61.3477 21.7965 61.3678 22.0994V25.8303C61.3471 26.1389 61.4148 26.4471 61.5648 26.7278C61.6604 26.8224 61.7785 26.8982 61.9109 26.9502C62.0433 27.0021 62.1871 27.029 62.3326 27.029C62.478 27.029 62.6218 27.0021 62.7542 26.9502C62.8866 26.8982 63.0047 26.8224 63.1003 26.7278V26.7102Z" fill="#AFB1B8"/>
<path d="M67.0035 19.9236H68.7701L70.0984 25.5192L71.4573 19.9236H73.1763L73.3496 28.0003H72.079L71.9431 22.3871L70.6318 28.0003H69.6126L68.2537 22.3665L68.128 28.0003H66.8439L67.0035 19.9236Z" fill="#AFB1B8"/>
<path d="M75.3302 19.9236H78.0819C79.6673 19.9236 80.4599 20.688 80.4599 22.217C80.4599 23.6814 79.6254 24.4126 77.9562 24.4106H77.0186V28.0003H75.32L75.3302 19.9236ZM77.6811 23.3754C77.8489 23.3938 78.0193 23.3805 78.1806 23.3364C78.3419 23.2924 78.4902 23.2186 78.6153 23.1203C78.8101 22.8475 78.896 22.5271 78.8599 22.2082C78.8688 21.9618 78.8414 21.7154 78.7783 21.475C78.7541 21.3947 78.7116 21.3194 78.6533 21.2534C78.5949 21.1874 78.522 21.1322 78.4386 21.0908C78.2028 20.9932 77.9422 20.9488 77.6811 20.9618H77.022V23.3754H77.6811Z" fill="#AFB1B8"/>
<path d="M82.9094 19.9236H84.7337L86.6055 28.0003H85.0225L84.6522 26.138H83.0249L82.6444 28.0003H81.0376L82.9094 19.9236ZM84.4687 25.2025L83.8334 21.8123L83.1982 25.2025H84.4687Z" fill="#AFB1B8"/>
<path d="M88.1173 19.9236H89.3063L91.5825 24.5309V19.9236H92.9923V28.0003H91.861L89.5713 23.1906V28.0003H88.1139L88.1173 19.9236Z" fill="#AFB1B8"/>
<path d="M96.2945 24.9208L94.4022 19.9349H95.9955L97.1506 23.1376L98.2343 19.9349H99.7936L97.9251 24.9208V28.0003H96.2945V24.9208Z" fill="#AFB1B8"/>
<path d="M56.0477 31.5316V31.954H54.6617V35.2359H54.0807V31.954H52.6879V31.5316H56.0477Z" fill="#AFB1B8"/>
<path d="M60.3927 35.2362H59.9442C59.8987 35.2386 59.8538 35.2261 59.8185 35.201C59.7846 35.1795 59.7587 35.15 59.7438 35.116L59.3429 34.2361H57.4201L57.0192 35.116C57.0078 35.1528 56.9869 35.1868 56.958 35.2157C56.9225 35.2402 56.8778 35.2527 56.8324 35.2509H56.3839L58.0825 31.5468H58.6737L60.3927 35.2362ZM57.5797 33.8607H59.1833L58.5038 32.3533C58.4537 32.2393 58.4117 32.1227 58.3781 32.0043C58.3543 32.0747 58.3339 32.1421 58.3136 32.2008L58.2524 32.3562L57.5797 33.8607Z" fill="#AFB1B8"/>
<path d="M63.3211 34.8724C63.4275 34.8772 63.5341 34.8772 63.6404 34.8724C63.7323 34.8642 63.8232 34.8495 63.9122 34.8284C63.9954 34.8107 64.0772 34.7882 64.1568 34.7609C64.2316 34.7345 64.3063 34.7022 64.3844 34.67V33.8369H63.705C63.6882 33.8378 63.6714 33.8356 63.6556 33.8305C63.6398 33.8255 63.6254 33.8177 63.6133 33.8076C63.6021 33.7993 63.5933 33.7889 63.5874 33.7772C63.5815 33.7655 63.5787 33.7529 63.5793 33.7401V33.4556H64.8974V34.8753C64.7898 34.9417 64.6762 35.0006 64.5577 35.0513C64.4366 35.1029 64.3104 35.1451 64.1806 35.1774C64.0417 35.2127 63.8996 35.2382 63.7559 35.2537C63.5912 35.2695 63.4257 35.2773 63.26 35.2771C62.967 35.2793 62.6763 35.2325 62.4038 35.1393C62.1495 35.051 61.9184 34.9193 61.7244 34.7521C61.5353 34.5832 61.3864 34.3839 61.2862 34.1655C61.1791 33.9199 61.1261 33.6593 61.1299 33.397C61.1263 33.133 61.1781 32.8706 61.2828 32.6226C61.3805 32.4031 61.5297 32.2033 61.721 32.036C61.9149 31.8693 62.1461 31.7386 62.4005 31.6517C62.6914 31.5572 63.0001 31.5105 63.3109 31.5138C63.4691 31.5137 63.627 31.5245 63.7831 31.5461C63.9212 31.5655 64.0567 31.597 64.1874 31.64C64.3062 31.6785 64.4201 31.7277 64.5271 31.7866C64.6312 31.8445 64.7301 31.9092 64.8227 31.9802L64.6596 32.209C64.6468 32.2299 64.6278 32.2475 64.6045 32.2598C64.5812 32.2722 64.5545 32.279 64.5271 32.2794C64.4895 32.2784 64.453 32.2682 64.4218 32.2501C64.3708 32.2266 64.3165 32.1973 64.2553 32.1621C64.1831 32.123 64.1069 32.0896 64.0277 32.0624C63.9265 32.0273 63.8219 31.9998 63.7152 31.9802C63.5729 31.9576 63.4284 31.9468 63.2837 31.948C63.0596 31.9458 62.8371 31.9807 62.6281 32.0506C62.439 32.1161 62.2686 32.2162 62.1287 32.3439C61.9879 32.4771 61.8803 32.6339 61.8127 32.8045C61.661 33.2056 61.661 33.6381 61.8127 34.0393C61.8871 34.2135 62.0028 34.3724 62.1525 34.5057C62.2918 34.6328 62.4609 34.7328 62.6485 34.799C62.8645 34.8631 63.0934 34.888 63.3211 34.8724Z" fill="#AFB1B8"/>
<path d="M68.7362 34.8136H70.5911V35.2359H68.1689V31.5316H68.7498L68.7362 34.8136Z" fill="#AFB1B8"/>
<path d="M72.5208 35.2359H71.9398V31.5316H72.5208V35.2359Z" fill="#AFB1B8"/>
<path d="M74.6814 31.5492C74.7159 31.5662 74.746 31.5892 74.7697 31.6167L77.253 34.409C77.2497 34.3651 77.2497 34.321 77.253 34.277C77.253 34.236 77.253 34.1949 77.253 34.1568V31.517H77.7592V35.2362H77.4671C77.4238 35.2392 77.3804 35.2321 77.3414 35.2156C77.3061 35.1972 77.275 35.1733 77.2496 35.1452L74.7697 32.3558C74.7697 32.3998 74.7697 32.4409 74.7697 32.482C74.7697 32.523 74.7697 32.5612 74.7697 32.5964V35.2362H74.2839V31.5316H74.5863C74.6191 31.5317 74.6515 31.5377 74.6814 31.5492Z" fill="#AFB1B8"/>
<path d="M82.0364 31.5316V31.9393H79.9777V33.1624H81.6457V33.5554H79.9777V34.8195H82.0364V35.2272H79.3798V31.5316H82.0364Z" fill="#AFB1B8"/>
<path d="M21.1617 8.65551L46.9568 14.9788V37.1368L21.1617 30.8164V8.65551ZM19.5073 6.76672V31.8928L48.6079 39.0285V13.9054L19.5073 6.76672Z" fill="#AFB1B8"/>
<path d="M35.1039 50.6922L6 43.5505V18.4271L35.1039 25.5659V50.6922Z" fill="#AFB1B8"/>
<path d="M19.9897 8.37099L45.4484 14.615L34.6215 23.9649L9.1594 17.7179L19.9897 8.37099ZM19.5073 6.76672L6 18.4277L35.1039 25.5662L48.6078 13.9053L19.5073 6.76672Z" fill="#AFB1B8"/>
<path d="M36.7414 49.2788L48.6078 39.0315L36.7414 36.1193V49.2788Z" fill="#AFB1B8"/>
</symbol>
</svg>
